<svg xmlns="http://www.w3.org/2000/svg" viewBox="0 0 173 128"><title>Artboard 10</title><g id="Layer_1" data-name="Layer 1"><path d="M57.61,97.3l-22-43.07a6.15,6.15,0,0,0-5.51-3.37h0a6.15,6.15,0,0,0-5.5,3.37L2.68,97.3a6.18,6.18,0,0,0,5.5,9H52.11a6.18,6.18,0,0,0,5.5-9Z" style="fill:#ffcd05"/><path d="M148.7,33.73l9.91-19.43a1.6,1.6,0,0,1,2.85,0l9.91,19.43a1.6,1.6,0,0,1-1.43,2.33H150.13A1.6,1.6,0,0,1,148.7,33.73Z" style="fill:#cc4b5b"/><line x1="102.53" y1="24.63" x2="105.21" y2="15.64" style="fill:#fff;stroke:#2c2e38;stroke-linecap:round;stroke-miterlimit:10;stroke-width:1.9701705759042px"/><line x1="106.28" y1="26.64" x2="113.66" y2="20.2" style="fill:#fff;stroke:#2c2e38;stroke-linecap:round;stroke-miterlimit:10;stroke-width:1.9701705759042px"/><line x1="108.7" y1="30.26" x2="116.35" y2="30.13" style="fill:#fff;stroke:#2c2e38;stroke-linecap:round;stroke-miterlimit:10;stroke-width:1.9701705759042px"/><line x1="124.8" y1="47.71" x2="127.48" y2="38.72" style="fill:#fff;stroke:#2c2e38;stroke-linecap:round;stroke-miterlimit:10;stroke-width:1.9701705759042px"/><line x1="128.56" y1="49.72" x2="135.94" y2="43.28" style="fill:#fff;stroke:#2c2e38;stroke-linecap:round;stroke-miterlimit:10;stroke-width:1.9701705759042px"/><line x1="130.97" y1="53.34" x2="138.62" y2="53.21" style="fill:#fff;stroke:#2c2e38;stroke-linecap:round;stroke-miterlimit:10;stroke-width:1.9701705759042px"/><polygon points="107.44 50.48 107.44 70.71 68 70.71 68 50.48 87.47 35.37 107.44 50.48" style="fill:#fff;stroke:#2c2e38;stroke-miterlimit:10;stroke-width:0.9850852879521px"/><line x1="68" y1="50.48" x2="107.44" y2="50.48" style="fill:#fff;stroke:#2c2e38;stroke-miterlimit:10;stroke-width:0.9850852879521px"/><polygon points="128.73 59.78 128.73 80 89.28 80 89.28 59.78 108.76 44.67 128.73 59.78" style="fill:#fff;stroke:#2c2e38;stroke-miterlimit:10;stroke-width:0.9850852879521px"/><line x1="89.28" y1="59.78" x2="128.73" y2="59.78" style="fill:#fff;stroke:#2c2e38;stroke-miterlimit:10;stroke-width:0.9850852879521px"/><rect x="121.93" y="74.53" width="39.45" height="21.21" style="fill:#fff;stroke:#2c2e38;stroke-miterlimit:10;stroke-width:0.9850852879521px"/><path d="M32.73,92.42A3.94,3.94,0,1,1,27.15,98a3.94,3.94,0,0,1,0-5.56,4,4,0,0,1,5.58,0Zm.51-27.54-.73,21.69H27.32l-.78-21.69Z" style="fill:#fff"/><polyline points="121.93 74.53 142.01 84.38 161.38 74.53" style="fill:none;stroke:#2c2e38;stroke-miterlimit:10;stroke-width:0.9850852879521px"/></g></svg>